<svg xmlns="http://www.w3.org/2000/svg" viewBox="0 0 731.95 103.31"><defs><style>.cls-1{font-size:89.6px;font-family:Quicksand-Bold, Quicksand;font-weight:700;letter-spacing:-0.02em;}.cls-1,.cls-8{fill:#231f34;}.cls-2{letter-spacing:-0.03em;}.cls-3{letter-spacing:-0.05em;}.cls-4{letter-spacing:-0.03em;}.cls-5{letter-spacing:-0.03em;}.cls-6{fill:#5c36ff;}.cls-7{fill:#1dc778;}.cls-9{fill:#ff3a4e;}.cls-10{fill:#ffaf24;}</style></defs><title>Asset 52@144x</title><g id="Layer_2" data-name="Layer 2"><g id="Layer_1-2" data-name="Layer 1"><text class="cls-1" transform="translate(179.91 76.16)">D<tspan class="cls-2" x="62.54" y="0">e</tspan><tspan class="cls-3" x="111.82" y="0">v</tspan><tspan class="cls-4" x="157.7" y="0">A</tspan><tspan class="cls-5" x="211.91" y="0">wesome</tspan></text><rect class="cls-6" x="16.27" y="31.41" width="13.09" height="58.97" rx="6.55" ry="6.55" transform="translate(82.01 87.81) rotate(135)"/><rect class="cls-7" x="16.22" y="-1.02" width="13.09" height="58.97" rx="6.55" ry="6.55" transform="translate(18.74 64.68) rotate(-135)"/><rect class="cls-8" x="56.05" y="28.25" width="13.09" height="32.95" rx="6.55" ry="6.55" transform="translate(125.19 89.45) rotate(180)"/><rect class="cls-8" x="89.04" y="28.25" width="13.09" height="32.95" rx="6.55" ry="6.55" transform="translate(191.16 89.45) rotate(-180)"/><rect class="cls-9" x="128.84" y="-0.99" width="13.09" height="58.97" rx="6.55" ry="6.55" transform="translate(251.26 -47.08) rotate(135)"/><rect class="cls-10" x="128.87" y="31.42" width="13.09" height="58.97" rx="6.55" ry="6.55" transform="translate(82.73 -77.91) rotate(45)"/><rect class="cls-10" x="96.87" y="83.3" width="13.09" height="19.22" rx="6.55" ry="6.55" transform="translate(95.98 -45.91) rotate(45)"/></g></g></svg>