<svg xmlns="http://www.w3.org/2000/svg" viewBox="0 0 201.18 121.8"><defs><style>.cls-1{fill:#5c36ff;}.cls-2{fill:#1dc778;}.cls-3{fill:#fff;}.cls-4{fill:#ff3a4e;}.cls-5{fill:#ffaf24;}</style></defs><title>Asset 44@144x</title><g id="Layer_2" data-name="Layer 2"><g id="Layer_1-2" data-name="Layer 1"><rect class="cls-1" x="20.69" y="32.71" width="16.65" height="74.98" rx="8.32" ry="8.32" transform="translate(99.16 99.32) rotate(135)"/><rect class="cls-2" x="20.62" y="-8.54" width="16.65" height="74.98" rx="8.32" ry="8.32" transform="translate(28.95 69.88) rotate(-135)"/><rect class="cls-3" x="71.27" y="28.64" width="16.65" height="41.89" rx="8.32" ry="8.32" transform="translate(159.18 99.17) rotate(180)"/><rect class="cls-3" x="113.21" y="28.62" width="16.65" height="41.89" rx="8.32" ry="8.32" transform="translate(243.06 99.12) rotate(180)"/><rect class="cls-4" x="163.85" y="-8.5" width="16.65" height="74.98" rx="8.32" ry="8.32" transform="translate(314.41 -72.26) rotate(135)"/><rect class="cls-5" x="163.91" y="32.67" width="16.65" height="74.98" rx="8.32" ry="8.32" transform="translate(100.05 -101.24) rotate(45)"/><rect class="cls-5" x="123.16" y="98.51" width="16.65" height="24.43" rx="8.32" ry="8.32" transform="translate(116.81 -60.54) rotate(45)"/></g></g></svg>