<svg xmlns="http://www.w3.org/2000/svg" viewBox="0 0 394.6 210.62"><defs><style>.cls-1{font-size:64.05px;font-family:Quicksand-Bold, Quicksand;font-weight:700;letter-spacing:-0.02em;}.cls-1,.cls-6{fill:#fff;}.cls-2{letter-spacing:-0.03em;}.cls-3{letter-spacing:-0.05em;}.cls-4{letter-spacing:-0.03em;}.cls-5{letter-spacing:-0.02em;}</style></defs><title>Asset 48@144x</title><g id="Layer_2" data-name="Layer 2"><g id="Layer_1-2" data-name="Layer 1"><text class="cls-1" transform="translate(0 191.21)">D<tspan class="cls-2" x="44.71" y="0">e</tspan><tspan class="cls-3" x="79.93" y="0">v</tspan><tspan class="cls-4" x="112.72" y="0">A</tspan><tspan class="cls-5" x="151.47" y="0">wesome</tspan></text><rect class="cls-6" x="116.67" y="32.61" width="16.65" height="74.98" rx="8.32" ry="8.32" transform="translate(262.95 31.27) rotate(135)"/><rect class="cls-6" x="116.67" y="-8.54" width="16.65" height="74.98" rx="8.32" ry="8.32" transform="translate(192.92 137.8) rotate(-135)"/><rect class="cls-6" x="167.32" y="28.57" width="16.65" height="41.89" rx="8.32" ry="8.32" transform="translate(351.28 99.04) rotate(180)"/><rect class="cls-6" x="209.26" y="28.57" width="16.65" height="41.89" rx="8.32" ry="8.32" transform="translate(435.16 99.04) rotate(180)"/><rect class="cls-6" x="259.9" y="-8.54" width="16.65" height="74.98" rx="8.32" ry="8.32" transform="translate(478.35 -140.25) rotate(135)"/><rect class="cls-6" x="259.9" y="32.61" width="16.65" height="74.98" rx="8.32" ry="8.32" transform="translate(128.12 -169.13) rotate(45)"/><rect class="cls-6" x="219.21" y="98.56" width="16.65" height="24.43" rx="8.32" ry="8.32" transform="translate(144.98 -128.45) rotate(45)"/></g></g></svg>