<svg xmlns="http://www.w3.org/2000/svg" viewBox="0 0 201.12 121.9"><defs><style>.cls-1{fill:#231f34;}</style></defs><title>Asset 53@144x</title><g id="Layer_2" data-name="Layer 2"><g id="Layer_1-2" data-name="Layer 1"><rect class="cls-1" x="20.73" y="32.79" width="16.65" height="74.98" rx="8.32" ry="8.32" transform="translate(99.29 99.42) rotate(135)"/><rect class="cls-1" x="20.62" y="-8.5" width="16.65" height="74.98" rx="8.32" ry="8.32" transform="translate(28.92 69.95) rotate(-135)"/><rect class="cls-1" x="71.27" y="28.62" width="16.65" height="41.89" rx="8.32" ry="8.32" transform="translate(159.18 99.12) rotate(180)"/><rect class="cls-1" x="113.21" y="28.62" width="16.65" height="41.89" rx="8.32" ry="8.32" transform="translate(243.06 99.12) rotate(180)"/><rect class="cls-1" x="163.81" y="-8.54" width="16.65" height="74.98" rx="8.32" ry="8.32" transform="translate(314.31 -72.3) rotate(135)"/><rect class="cls-1" x="163.85" y="32.71" width="16.65" height="74.98" rx="8.32" ry="8.32" transform="translate(100.07 -101.18) rotate(45)"/><rect class="cls-1" x="123.16" y="98.61" width="16.65" height="24.43" rx="8.32" ry="8.32" transform="translate(116.87 -60.52) rotate(45)"/></g></g></svg>